<?xml version="1.0" encoding="utf-8"?>
<!-- Generator: Adobe Illustrator 17.0.0, SVG Export Plug-In . SVG Version: 6.00 Build 0)  -->
<!DOCTYPE svg PUBLIC "-//W3C//DTD SVG 1.1//EN" "http://www.w3.org/Graphics/SVG/1.1/DTD/svg11.dtd">
<svg version="1.1" id="Layer_1" xmlns="http://www.w3.org/2000/svg" xmlns:xlink="http://www.w3.org/1999/xlink" x="0px" y="0px"
	 width="160px" height="33px" viewBox="0 0 160 33" enable-background="new 0 0 160 33" xml:space="preserve">
<g>
	<g>
		<g id="LOGO_FINAL_500px_1_">
			<circle fill="#EC1C24" cx="36.625" cy="6.704" r="3.27"/>
			<path fill="#EC1C24" d="M39.732,17.92l-0.242-0.104c-0.12,0.119-0.272,0.169-0.461,0.169c-0.27,0-0.506-0.161-0.622-0.431
				c-0.093-0.217-0.147-0.437-0.147-0.885v-5.339c-0.512,0.18-1.061,0.279-1.635,0.279c-0.573,0-1.123-0.099-1.634-0.279
				c0,0-0.006,6.286,0,6.391c-0.518,0.172-1.06,0.265-1.636,0.265c-1.084,0-1.962-0.879-1.962-1.962c0-0.015,0-4.764,0-4.764
				c0-3.248-2.166-6.027-6.114-6.027c-1.556,0-3.174,0.581-4.664,1.792c-0.131-0.311-0.303-0.59-0.516-0.836
				c-0.553-0.638-1.348-0.956-2.385-0.956c-0.757,0-1.39,0.174-1.898,0.522l-0.12,0.223l0.49,2.262l0.242,0.104
				c0.119-0.12,0.272-0.17,0.461-0.17c0.27,0,0.505,0.162,0.622,0.431c0.093,0.218,0.147,0.438,0.147,0.886v7.839l0,0
				c0,0.362-0.294,0.654-0.654,0.654h-1.308c-1.083,0-1.962-0.879-1.962-1.962v-1.559V5.233h-3.271v9.156
				c0,1.635-1.236,3.597-3.815,3.597c-0.017,0-0.088,0-0.108,0c-1.806,0-3.27-1.465-3.27-3.27V5.233H0v9.668
				c0,3.248,2.167,6.027,6.114,6.027c1.718,0,3.511-0.708,5.125-2.19l0.032-0.024c0.877,1.333,2.385,2.215,4.1,2.215
				c0.059,0,3.597,0,3.597,0c1.083,0,1.962-0.879,1.962-1.961v-7.194c0-1.636,1.238-3.598,3.816-3.598c0.017,0,0.089,0,0.108,0
				c1.806,0,3.27,1.465,3.27,3.27c0,0,0,3.652,0,4.578c0,2.709,2.196,4.904,4.905,4.904c0.055,0,0.273,0,0.327,0
				c0.992,0,1.926-0.246,2.745-0.679c0.531,0.452,1.232,0.679,2.104,0.679c0.757,0,1.39-0.174,1.899-0.523l0.119-0.224L39.732,17.92
				z"/>
			<path fill="#EC1C24" d="M62.132,5.233v9.156c0,1.635-1.237,3.597-3.815,3.597c-0.017,0-0.089,0-0.109,0
				c-1.806,0-3.269-1.465-3.269-3.27v-6.54c0-1.625-1.318-2.942-2.943-2.942l0,0l0,0c-0.57,0-5.559,0-5.559,0V0h-3.27v5.233h-1.86
				c0.146,0.464,0.225,0.958,0.225,1.471c0,0.512-0.08,1.007-0.225,1.471h1.86c0,0,0,7.787,0,7.849c0,2.709,2.196,4.904,4.905,4.904
				c0.056,0,0.273,0,0.327,0c0.685,0,1.342-0.118,1.953-0.334l0.105-0.225l-0.871-2.39l-0.191-0.089
				c-0.323,0.062-0.656,0.095-0.997,0.095c-1.084,0-1.963-0.879-1.963-1.962c0-0.015,0-7.849,0-7.849h4.578v0.002
				c0.352,0.018,0.634,0.301,0.652,0.653h0.002v6.071c0,3.248,2.166,6.027,6.114,6.027c1.416,0,2.883-0.481,4.258-1.48
				c-0.718,5.63-5.527,9.983-11.352,9.983c-4.403,0-8.224-2.487-10.139-6.131l-0.222-0.074c-0.002,0.002-0.006,0.003-0.007,0.004
				c-0.437,0.209-0.949,0.315-1.535,0.315c-0.583,0-1.088-0.101-1.518-0.303l-0.246,0.202c0.001,0,0.001,0.002,0.001,0.003
				c2.169,5.423,7.469,9.254,13.666,9.254c8.126,0,14.716-6.589,14.716-14.716V5.233H62.132z"/>
		</g>
	</g>
	<g>
		<path fill="#808184" d="M72.052,20.928l2.747-15.568h10.783l-0.71,3.961h-6.41l-0.343,1.877h5.059l-0.664,3.709h-5.037
			l-0.366,2.06h6.433l-0.71,3.961H72.052z"/>
		<path fill="#808184" d="M99.614,5.635l-5.471,7.532l2.839,7.463l-0.069,0.298h-4.35l-1.465-5.197l-3.32,5.197h-4.533l0.046-0.298
			l5.403-7.463l-2.747-7.532l0.046-0.275h4.281l1.511,5.242l3.343-5.242h4.533L99.614,5.635z"/>
		<path fill="#808184" d="M100.963,5.361h6.364c2.175,0,4.052,1.626,4.052,4.579c0,4.35-2.885,6.731-5.792,6.731h-3.228
			l-0.756,4.258h-3.388L100.963,5.361z M103.825,8.314l-0.962,5.403h2.381c1.351,0,2.633-1.282,2.633-3.343
			c0-1.282-0.71-2.06-1.694-2.06H103.825z"/>
		<path fill="#808184" d="M113.965,5.361h6.227c2.45,0,3.915,1.785,3.915,4.212c0,3.182-2.198,5.22-4.602,5.632
			c0.961,1.465,1.877,3.411,3.274,3.411c0.389,0,0.939-0.183,1.397-0.389l-0.114,2.335c-0.572,0.321-1.511,0.595-2.335,0.595
			c-3.045,0-4.212-4.716-5.655-5.884h-0.916l-1.007,5.655h-2.93L113.965,5.361z M115.545,12.961h2.656
			c1.58,0,2.862-1.145,2.862-3.045c0-1.282-0.801-1.992-1.969-1.992h-2.633L115.545,12.961z"/>
		<path fill="#808184" d="M125.159,20.928l2.747-15.568h10.05l-0.343,1.992h-7.898l-0.801,4.533h6.525l-0.366,1.969h-6.502
			l-0.893,5.105h7.875l-0.343,1.969H125.159z"/>
		<path fill="#808184" d="M137.794,18.479c0.733,0.549,2.106,1.282,3.709,1.282c2.289,0,4.167-1.305,4.167-3.548
			c0-1.099-0.71-1.786-2.152-2.244l-2.335-0.755c-1.603-0.55-2.473-1.534-2.473-3.137c0-2.564,2.083-4.922,5.792-4.922
			c1.694,0,3.32,0.595,4.189,1.19l-0.664,1.305c-0.756-0.573-2.267-1.099-3.64-1.099c-2.747,0-4.167,1.603-4.167,3.319
			c0,1.007,0.618,1.671,1.671,2.015l2.427,0.801c1.877,0.641,2.93,1.58,2.93,3.342c0,3.068-2.473,5.128-5.838,5.128
			c-1.809,0-3.48-0.778-4.189-1.351L137.794,18.479z"/>
		<path fill="#808184" d="M149.08,18.891c0.687,0.527,2.106,1.305,3.777,1.305c2.541,0,4.67-1.511,4.67-3.961
			c0-1.213-0.801-1.991-2.381-2.472l-2.564-0.778c-1.511-0.481-2.381-1.488-2.381-3.022c0-2.45,2.015-4.808,5.7-4.808
			c1.671,0,3.274,0.618,4.098,1.236l-0.458,0.87c-0.733-0.572-2.289-1.168-3.709-1.168c-3.045,0-4.625,1.877-4.625,3.732
			c0,1.122,0.664,1.9,1.831,2.243l2.587,0.801c1.854,0.595,2.93,1.511,2.93,3.251c0,3.068-2.495,5.037-5.769,5.037
			c-1.786,0-3.411-0.801-4.121-1.374L149.08,18.891z"/>
	</g>
</g>
</svg>
