<?xml version="1.0" encoding="utf-8"?>
<!-- Generator: Adobe Illustrator 17.0.0, SVG Export Plug-In . SVG Version: 6.00 Build 0)  -->
<!DOCTYPE svg PUBLIC "-//W3C//DTD SVG 1.1//EN" "http://www.w3.org/Graphics/SVG/1.1/DTD/svg11.dtd">
<svg version="1.1" id="Layer_1" xmlns="http://www.w3.org/2000/svg" xmlns:xlink="http://www.w3.org/1999/xlink" x="0px" y="0px"
	 width="140px" height="70px" viewBox="0 0 140 70" enable-background="new 0 0 140 70" xml:space="preserve">
<g>
	<g id="LOGO_FINAL_500px_2_">
		<circle fill="#EC1C24" cx="78.399" cy="14.351" r="7"/>
		<g>
			<g>
				<path fill="#808184" d="M0,50.153h4.346c2.307,0,3.723,1.061,3.723,3.367c0,1.416-0.699,2.36-1.796,2.797
					c1.664,0.338,2.666,1.36,2.666,3.212c0,2.153-1.342,3.476-3.855,3.476H0V50.153z M1.852,55.579h2.172
					c1.381,0,2.175-0.68,2.175-1.91c0-1.304-0.719-1.891-2.098-1.891H1.852V55.579z M1.852,61.381h2.984
					c1.495,0,2.175-0.738,2.175-1.966c0-1.397-0.85-2.117-2.437-2.117H1.852V61.381z"/>
				<path fill="#808184" d="M10.865,50.153h5.082c2.193,0,3.876,1.551,3.876,4.121c0,2.268-1.53,3.762-3.44,3.969
					c1.077,1.286,2.325,3.326,3.685,3.326c0.378,0,0.87-0.15,1.248-0.358l0.209,1.492c-0.453,0.265-1.228,0.492-1.91,0.492
					c-2.513,0-4.214-3.989-5.519-4.932h-1.378v4.743h-1.852V50.153z M12.717,56.768h2.778c1.36,0,2.437-0.907,2.437-2.476
					c0-1.699-1.077-2.514-2.437-2.514h-2.778V56.768z"/>
				<path fill="#808184" d="M22.77,50.153h1.852v12.852H22.77V50.153z"/>
				<path fill="#808184" d="M29.138,53.254v9.751h-1.833V50.153h1.606l6.727,9.772v-9.772h1.873v12.852h-1.645L29.138,53.254z"/>
				<path fill="#808184" d="M40.227,50.153h4.535c3.233,0,5.651,2.288,5.651,6.445c0,4.14-2.418,6.407-5.651,6.407h-4.535V50.153z
					 M44.537,61.381c2.399,0,3.987-1.683,3.987-4.783c0-3.137-1.588-4.82-3.987-4.82h-2.458v9.603H44.537z"/>
				<path fill="#808184" d="M52.487,63.005V50.153h8.542v1.645h-6.765v3.743h5.595v1.625h-5.595v4.216h6.765v1.624H52.487z"/>
				<path fill="#808184" d="M62.887,60.416c0.756,0.529,1.984,1.079,3.27,1.079c1.436,0,2.569-0.699,2.569-2.098
					c0-0.984-0.622-1.494-1.889-1.873L64.759,56.9c-1.589-0.492-2.495-1.529-2.495-3.193c0-1.985,1.513-3.723,4.403-3.723
					c1.455,0,2.929,0.453,3.78,0.945l-0.529,1.664c-0.794-0.531-2.098-0.908-3.195-0.908c-1.775,0-2.627,0.831-2.627,1.908
					c0,0.926,0.548,1.42,1.494,1.701l2.098,0.661c1.928,0.625,2.929,1.588,2.929,3.328c0,2.286-1.701,3.911-4.365,3.911
					c-1.589,0-3.082-0.585-3.799-1.04L62.887,60.416z"/>
			</g>
		</g>
		<path fill="#EC1C24" d="M85.048,38.36l-0.518-0.222c-0.256,0.254-0.582,0.362-0.987,0.362c-0.576,0-1.08-0.344-1.331-0.923
			c-0.199-0.466-0.313-0.937-0.313-1.897V24.251c-1.095,0.389-2.272,0.6-3.5,0.6c-1.228,0-2.405-0.211-3.5-0.6
			c0,0-0.011,13.458,0,13.682c-1.106,0.367-2.27,0.567-3.5,0.567c-2.32,0-4.199-1.881-4.199-4.198c0-0.035,0-10.198,0-10.198
			c0-6.953-4.638-12.904-13.087-12.904c-3.331,0-6.796,1.244-9.986,3.836c-0.28-0.666-0.648-1.262-1.104-1.788
			c-1.183-1.366-2.884-2.048-5.103-2.048c-1.622,0-2.976,0.373-4.064,1.121L33.6,12.801l1.05,4.841l0.518,0.222
			c0.256-0.256,0.582-0.362,0.987-0.362c0.576,0,1.08,0.344,1.33,0.923c0.201,0.466,0.315,0.937,0.315,1.896v16.781l0,0
			c0,0.772-0.627,1.399-1.4,1.399H33.6c-2.32,0-4.201-1.881-4.201-4.198v-3.336V11.201h-7v19.6c0,3.502-2.648,7.699-8.167,7.699
			c-0.035,0-0.19,0-0.233,0C10.133,38.5,7,35.365,7,31.502V11.201H0v20.698c0,6.953,4.637,12.9,13.087,12.9
			c3.677,0,7.516-1.514,10.969-4.688l0.067-0.053c1.876,2.855,5.104,4.741,8.775,4.741c0.129,0,7.701,0,7.701,0
			c2.318,0,4.199-1.879,4.199-4.198v-15.4c0-3.5,2.648-7.699,8.167-7.699c0.035,0,0.19,0,0.233,0c3.867,0,7,3.135,7,7
			c0,0,0,7.815,0,9.801c0,5.796,4.701,10.497,10.5,10.497c0.117,0,0.582,0,0.699,0c2.124,0,4.122-0.526,5.875-1.453
			c1.137,0.968,2.637,1.453,4.506,1.453c1.621,0,2.976-0.371,4.063-1.117l0.257-0.481L85.048,38.36z"/>
		<path fill="#EC1C24" d="M132.998,11.201v19.6c0,3.502-2.648,7.699-8.169,7.699c-0.035,0-0.188,0-0.231,0c-3.865,0-7-3.135-7-6.998
			v-14c0-3.479-2.82-6.301-6.301-6.301l0,0l0,0c-1.219,0-11.899,0-11.899,0V0h-7v11.201h-3.982c0.312,0.995,0.482,2.051,0.482,3.15
			c0,1.096-0.17,2.156-0.482,3.151h3.982c0,0,0,16.667,0,16.801c0,5.796,4.699,10.497,10.5,10.497c0.117,0,0.583,0,0.701,0
			c1.466,0,2.872-0.252,4.182-0.714l0.223-0.482l-1.862-5.116l-0.408-0.19c-0.691,0.132-1.407,0.203-2.135,0.203
			c-2.32,0-4.201-1.881-4.201-4.198c0-0.035,0-16.801,0-16.801h9.801v0.003c0.754,0.037,1.357,0.641,1.396,1.396h0.003v12.998
			c0,6.953,4.638,12.9,13.087,12.9c3.03,0,6.17-1.031,9.116-3.169C131.264,53.683,120.968,63,108.498,63
			c-9.423,0-17.603-5.322-21.701-13.124l-0.476-0.158c-0.006,0.002-0.013,0.005-0.014,0.006c-0.937,0.45-2.031,0.675-3.288,0.675
			c-1.246,0-2.33-0.217-3.248-0.648l-0.529,0.432c0.002,0.002,0.002,0.006,0.003,0.006C83.889,61.799,95.235,70,108.498,70
			c17.397,0,31.5-14.103,31.5-31.5V11.201H132.998z"/>
	</g>
</g>
</svg>
