<?xml version="1.0" encoding="utf-8"?>
<!-- Generator: Adobe Illustrator 17.0.0, SVG Export Plug-In . SVG Version: 6.00 Build 0)  -->
<!DOCTYPE svg PUBLIC "-//W3C//DTD SVG 1.1//EN" "http://www.w3.org/Graphics/SVG/1.1/DTD/svg11.dtd">
<svg version="1.1" id="Layer_1" xmlns="http://www.w3.org/2000/svg" xmlns:xlink="http://www.w3.org/1999/xlink" x="0px" y="0px"
	 width="120px" height="25px" viewBox="0 0 120 25" enable-background="new 0 0 120 25" xml:space="preserve">
<g>
	<g>
		<g id="LOGO_FINAL_500px_1_">
			<circle fill="#EC1C24" cx="27.469" cy="5.028" r="2.453"/>
			<path fill="#EC1C24" d="M29.799,13.44l-0.181-0.078c-0.09,0.089-0.204,0.127-0.346,0.127c-0.202,0-0.379-0.121-0.466-0.323
				c-0.07-0.163-0.11-0.328-0.11-0.664V8.497c-0.384,0.135-0.796,0.209-1.226,0.209c-0.43,0-0.842-0.074-1.226-0.209
				c0,0-0.005,4.714,0,4.793c-0.388,0.129-0.795,0.199-1.227,0.199c-0.813,0-1.471-0.659-1.471-1.471c0-0.012,0-3.573,0-3.573
				c0-2.436-1.625-4.52-4.585-4.52c-1.167,0-2.38,0.436-3.498,1.344c-0.099-0.233-0.227-0.442-0.387-0.627
				c-0.415-0.479-1.011-0.717-1.788-0.717c-0.568,0-1.043,0.13-1.423,0.392l-0.09,0.168l0.368,1.697l0.181,0.078
				c0.09-0.09,0.204-0.127,0.346-0.127c0.202,0,0.379,0.121,0.466,0.324c0.07,0.163,0.11,0.328,0.11,0.664v5.879l0,0
				c0,0.271-0.22,0.491-0.491,0.491h-0.981c-0.812,0-1.471-0.659-1.471-1.471v-1.169V3.925H7.848v6.867
				c0,1.226-0.927,2.698-2.862,2.698c-0.012,0-0.066,0-0.081,0c-1.355,0-2.453-1.098-2.453-2.453V3.925H0v7.251
				c0,2.436,1.625,4.52,4.585,4.52c1.288,0,2.633-0.531,3.843-1.643l0.024-0.018c0.657,1,1.788,1.661,3.075,1.661
				c0.044,0,2.698,0,2.698,0c0.812,0,1.471-0.659,1.471-1.471V8.83c0-1.227,0.928-2.698,2.862-2.698c0.012,0,0.066,0,0.081,0
				c1.355,0,2.453,1.098,2.453,2.453c0,0,0,2.739,0,3.434c0,2.032,1.647,3.678,3.679,3.678c0.041,0,0.204,0,0.245,0
				c0.744,0,1.445-0.185,2.059-0.509c0.398,0.339,0.924,0.509,1.578,0.509c0.568,0,1.043-0.131,1.424-0.392l0.09-0.168L29.799,13.44
				z"/>
			<path fill="#EC1C24" d="M46.599,3.925v6.867c0,1.226-0.928,2.698-2.862,2.698c-0.012,0-0.066,0-0.082,0
				c-1.354,0-2.452-1.098-2.452-2.453V6.131c0-1.219-0.989-2.207-2.208-2.207l0,0l0,0c-0.428,0-4.17,0-4.17,0V0h-2.453v3.925h-1.395
				c0.109,0.348,0.169,0.718,0.169,1.103c0,0.384-0.06,0.755-0.169,1.103h1.395c0,0,0,5.841,0,5.886
				c0,2.032,1.647,3.678,3.679,3.678c0.042,0,0.204,0,0.246,0c0.514,0,1.007-0.088,1.465-0.251l0.079-0.168l-0.653-1.792
				l-0.143-0.067c-0.242,0.047-0.492,0.071-0.748,0.071c-0.813,0-1.472-0.659-1.472-1.471c0-0.012,0-5.886,0-5.886h3.434v0.001
				c0.264,0.014,0.475,0.226,0.489,0.49h0.002v4.553c0,2.436,1.625,4.52,4.585,4.52c1.062,0,2.162-0.361,3.193-1.11
				c-0.539,4.222-4.145,7.487-8.514,7.487c-3.302,0-6.168-1.865-7.604-4.598l-0.167-0.055c-0.002,0.001-0.004,0.002-0.005,0.003
				c-0.328,0.157-0.711,0.236-1.151,0.236c-0.437,0-0.816-0.076-1.138-0.227l-0.185,0.152c0.001,0,0.001,0.001,0.001,0.003
				c1.627,4.067,5.602,6.94,10.25,6.94c6.095,0,11.037-4.942,11.037-11.037V3.925H46.599z"/>
		</g>
	</g>
	<g>
		<path fill="#808184" d="M54.039,15.696l2.06-11.676h8.087l-0.532,2.97h-4.808l-0.257,1.408h3.795l-0.498,2.782h-3.778
			l-0.275,1.545h4.825l-0.532,2.97H54.039z"/>
		<path fill="#808184" d="M74.71,4.227l-4.104,5.649l2.129,5.597l-0.051,0.223h-3.262l-1.099-3.898l-2.49,3.898h-3.4l0.034-0.223
			l4.052-5.597l-2.06-5.649l0.034-0.206h3.211l1.133,3.932l2.507-3.932h3.4L74.71,4.227z"/>
		<path fill="#808184" d="M75.722,4.021h4.773c1.631,0,3.039,1.219,3.039,3.434c0,3.262-2.164,5.048-4.344,5.048H76.77l-0.567,3.194
			h-2.541L75.722,4.021z M77.869,6.235l-0.721,4.052h1.786c1.013,0,1.975-0.962,1.975-2.507c0-0.961-0.532-1.545-1.271-1.545H77.869
			z"/>
		<path fill="#808184" d="M85.474,4.021h4.67c1.837,0,2.936,1.339,2.936,3.159c0,2.387-1.648,3.915-3.451,4.224
			c0.721,1.099,1.408,2.559,2.455,2.559c0.292,0,0.704-0.137,1.047-0.292l-0.086,1.751c-0.429,0.24-1.133,0.446-1.751,0.446
			c-2.284,0-3.159-3.537-4.241-4.413h-0.687l-0.755,4.241h-2.198L85.474,4.021z M86.659,9.721h1.992
			c1.185,0,2.146-0.858,2.146-2.284c0-0.962-0.601-1.494-1.477-1.494h-1.975L86.659,9.721z"/>
		<path fill="#808184" d="M93.869,15.696l2.06-11.676h7.538l-0.257,1.494h-5.924l-0.601,3.4h4.894l-0.275,1.477h-4.876l-0.67,3.829
			h5.907l-0.258,1.477H93.869z"/>
		<path fill="#808184" d="M103.346,13.859c0.549,0.412,1.58,0.961,2.782,0.961c1.717,0,3.125-0.979,3.125-2.661
			c0-0.824-0.532-1.339-1.614-1.683l-1.751-0.566c-1.202-0.412-1.854-1.15-1.854-2.353c0-1.923,1.562-3.691,4.344-3.691
			c1.271,0,2.49,0.446,3.142,0.893l-0.498,0.979c-0.567-0.429-1.7-0.824-2.73-0.824c-2.06,0-3.125,1.202-3.125,2.49
			c0,0.755,0.464,1.253,1.253,1.511l1.82,0.601c1.408,0.481,2.198,1.185,2.198,2.507c0,2.301-1.854,3.846-4.378,3.846
			c-1.356,0-2.61-0.584-3.142-1.013L103.346,13.859z"/>
		<path fill="#808184" d="M111.81,14.168c0.515,0.395,1.58,0.979,2.833,0.979c1.906,0,3.503-1.133,3.503-2.97
			c0-0.91-0.601-1.494-1.786-1.854l-1.923-0.584c-1.133-0.361-1.786-1.116-1.786-2.267c0-1.837,1.511-3.606,4.275-3.606
			c1.253,0,2.455,0.463,3.073,0.927l-0.343,0.652c-0.549-0.429-1.717-0.876-2.782-0.876c-2.284,0-3.468,1.408-3.468,2.799
			c0,0.841,0.498,1.425,1.374,1.683l1.94,0.601c1.391,0.446,2.198,1.133,2.198,2.438c0,2.301-1.872,3.777-4.327,3.777
			c-1.339,0-2.558-0.601-3.091-1.03L111.81,14.168z"/>
	</g>
</g>
</svg>
